<svg width="76" height="126" fill="none" xmlns="http://www.w3.org/2000/svg"><g clip-path="url(#a)" fill="#fff"><path d="M75.213 37.393a37.373 37.373 0 0 0-6.307-20.774A37.416 37.416 0 0 0 52.112 2.846a37.448 37.448 0 0 0-40.782 8.106 37.367 37.367 0 0 0-8.112 40.75A37.399 37.399 0 0 0 17 68.485a37.442 37.442 0 0 0 47.252-4.65 37.392 37.392 0 0 0 10.96-26.44ZM35.31 39.871l-4.535-2.478 4.535-2.479 2.48-4.531 2.48 4.531 4.536 2.48-4.535 2.477-2.48 4.532-2.48-4.532ZM50.493 82.727l22.415 13.065v29.864H2.672V96.54h36.612l11.209-13.813Z"/></g><defs><clipPath id="a"><path fill="#fff" transform="translate(.37)" d="M0 0h74.844v125.658H0z"/></clipPath></defs></svg>