<svg width="76" height="149" fill="none" xmlns="http://www.w3.org/2000/svg"><path d="M75.062 37.393a37.373 37.373 0 0 0-6.306-20.774A37.416 37.416 0 0 0 51.96 2.846a37.448 37.448 0 0 0-40.782 8.106 37.367 37.367 0 0 0-8.112 40.75A37.399 37.399 0 0 0 16.85 68.485a37.442 37.442 0 0 0 47.252-4.65 37.379 37.379 0 0 0 10.96-26.44ZM35.16 39.871l-4.535-2.478 4.535-2.479 2.48-4.531 2.48 4.531 4.536 2.48-4.536 2.477-2.48 4.532-2.48-4.532ZM72.633 93.783H50.591v29.492a70.176 70.176 0 0 0-3.184-17.17c-1.8-5.317-7.366-11.882-12.268-14.627-3.835-2.15-4.446-2.448-11.112-3.135-3.47-.357-6.955-.534-10.443-.532H2.644v59.729h29.764v-18.915s3.362 19.91 23.536 19.537c0 0 13.45 1.369 16.189-16.674l.5-37.705Z" fill="#fff"/></svg>