<svg width="76" height="157" fill="none" xmlns="http://www.w3.org/2000/svg"><path d="M75.84 37.393a37.373 37.373 0 0 0-6.306-20.774A37.415 37.415 0 0 0 52.739 2.846a37.448 37.448 0 0 0-40.781 8.106 37.367 37.367 0 0 0-8.112 40.75 37.399 37.399 0 0 0 13.782 16.782 37.442 37.442 0 0 0 47.252-4.65 37.379 37.379 0 0 0 10.96-26.44Zm-39.902 2.478-4.535-2.478 4.535-2.478 2.48-4.532 2.48 4.532 4.536 2.478-4.535 2.478-2.48 4.532-2.48-4.532ZM73.412 97.24V139.3s-2.74 16.674-16.436 15.928c0 0-7.224 3.733-14.695-8.711 0 0-10.71 11.946-22.167 9.208 0 0-12.453-1.742-16.687-16.176V97.241h28.891v34.096h3.737v-22.399h11.954v22.399h3.487V96.495l21.916.745Z" fill="#fff"/></svg>