<svg width="76" height="161" fill="none" xmlns="http://www.w3.org/2000/svg"><path d="M75.84 37.393a37.372 37.372 0 0 0-6.306-20.774A37.416 37.416 0 0 0 52.739 2.846a37.448 37.448 0 0 0-40.781 8.106 37.366 37.366 0 0 0-8.112 40.75 37.4 37.4 0 0 0 13.782 16.782 37.442 37.442 0 0 0 47.252-4.65 37.379 37.379 0 0 0 10.96-26.44Zm-39.902 2.48-4.535-2.48 4.535-2.478 2.48-4.531 2.48 4.531 4.536 2.478-4.535 2.48-2.48 4.53-2.48-4.53ZM38.003 151.415H73.37v-32.688L38.17 91.019H15.258v28.372H3.472v31.689h11.786v9.793h22.747l-.002-9.458Zm-2.967-26.624-5.08-2.776 5.08-2.776 2.779-5.077 2.779 5.077 5.08 2.776-5.08 2.776-2.78 5.077-2.778-5.077Z" fill="#fff"/></svg>