<svg width="391" height="599" viewBox="0 0 391 599" fill="none" xmlns="http://www.w3.org/2000/svg">
<g style="mix-blend-mode:multiply">
<path d="M-61 179.958L57.8173 0.205472L71.7589 2.93765L77.875 0.230535L90.3327 3.13818L96.504 0.00494385L109.172 3.46905L116.862 0.00494385L132.343 3.98039L141.628 0.0801423L155.96 4.52182L160.653 0.075128L176.459 4.27617L184.956 0.120245L196.517 7.68513L204.899 0.00494385L238.016 9.79066L249.08 2.94267L258.645 0.325787L256.479 8.54238L255.286 14.2173L260.811 16.2326L274.472 25.8629L152.351 270.897L-61 179.958Z" fill="#FFDA51"/>
<path d="M162.868 599L378.701 74.2098V58.6539L390.03 42.9276H375.317L369.812 47.2439L352.662 42.7571L349.328 47.2439L313.991 42.7571L310.236 47.4796L294.68 42.7622L289.642 47.4394L275.063 42.8323L271.574 47.2439L255.973 42.7571L252.89 47.2439L238.683 42.7571L235.645 47.2439L220.951 42.8323L214.66 47.2439L199.926 42.8373L190.992 47.2439L175.166 42.7571L162.868 47.2439L148.14 42.8373L139.141 47.2439L123.375 42.7571L113.524 47.2439L96.0327 43.449L80.6223 50.3671L65.6579 42.7672L54.1376 48.9785L-32.2144 183.156V599H162.868Z" fill="#B8E6DD"/>
<path d="M57.8071 0.230362L66.0337 32.5754H78.7221L83.4094 16.9142L87.9814 32.4601H101.236L109.924 -0.000244141H96.2081L93.2352 12.8034L89.6959 0.230362H77.5791L74.2654 13.4852L70.9517 0.230362H57.8071Z" fill="#FA64B1"/>
<path d="M111.389 32.4601H125.712L127.236 21.4862L131.121 32.5353H140.796L144.531 22.0978L146.361 32.6105H160.609L155.35 0.0749543H141.333L135.924 14.0968L130.665 -0.000244141H116.568L111.389 32.4601Z" fill="#FA64B1"/>
<path d="M160.202 0.115061L171.401 32.4601H188.09L200.317 0.115061H184.661L180.089 15.0894L174.945 -0.000244141L160.202 0.115061Z" fill="#FA64B1"/>
<path d="M233.519 18.8594C233.519 18.8594 239.349 14.518 236.948 6.40164C236.948 6.40164 235.765 3.1531 232.276 1.16788C230.902 0.385823 229.343 0.00482178 227.764 0.00482178H204.603V32.4651H220.72V24.4641L223.809 32.2345H239.124L233.524 18.8644L233.519 18.8594ZM223.292 11.8309C223.237 13.8863 220.204 13.375 220.204 13.375V10.1766C223.402 10.0412 223.292 11.8359 223.292 11.8359V11.8309Z" fill="#FA64B1"/>
<path d="M259.443 9.72031H271.9C271.9 9.72031 272.241 0.17522 258.069 0.00477151C258.069 0.00477151 247.095 -0.451427 244.012 8.40686C244.012 8.40686 242.297 15.7762 249.897 18.8643C249.897 18.8643 253.402 20.5588 256.831 20.7894C256.831 20.7894 258.47 19.6213 258.47 18.4232C258.47 18.4232 258.891 20.5989 260.701 21.2306C260.701 21.2306 258.756 22.4237 258.47 23.9678C258.47 23.9678 258.43 22.905 256.811 21.7469L243.21 21.6918C243.21 21.6918 242.809 31.3873 253.783 34.4754C253.783 34.4754 257.558 35.1772 262.094 34.6759C266.22 34.2197 270.045 32.2094 272.622 28.9509C273.61 27.7026 274.422 26.2688 274.663 24.7498C274.683 24.6145 274.703 24.4841 274.728 24.3488C274.938 23.2509 275.936 16.3778 268.637 12.7533C268.637 12.7533 262.581 10.4121 259.377 10.6979C259.377 10.6979 258.701 11.2142 258.465 11.8559C258.465 11.8559 257.848 10.4021 256.575 10.2517C256.575 10.2517 257.838 9.72031 258.455 8.39683C258.455 8.39683 258.655 9.25408 259.438 9.73034L259.443 9.72031Z" fill="#FA64B1"/>
<path d="M83.3292 58.4434C83.3191 57.9571 82.9281 47.2189 69.7184 43.2885C66.6503 42.3761 63.3467 42.6368 60.4641 44.0405C56.3934 46.0207 51.1045 50.1315 49.9615 58.3481C49.9615 58.3481 49.3499 68.1689 57.5514 73.3776C61.1459 75.6636 65.5174 76.3554 69.6933 75.5233C74.912 74.4805 82.0558 71.1217 83.3242 60.6291C83.3242 60.6141 83.3141 60.599 83.2991 60.599H68.0089C68.0089 60.599 67.9939 60.599 67.9889 60.604C67.8986 60.7093 66.8809 61.8724 66.7907 62.8449C66.7907 62.87 66.7506 62.875 66.7456 62.8499C66.5701 62.3035 65.773 60.2481 63.497 59.7919C63.472 59.7919 63.467 59.7568 63.497 59.7468C63.9733 59.6014 66.1891 58.8043 66.7707 56.5183C66.7757 56.4983 66.8057 56.4932 66.8158 56.5183C66.9361 56.8291 67.4725 58.1676 67.9688 58.8645C67.9688 58.8695 67.9788 58.8745 67.9889 58.8745H83.3643C83.3643 58.8745 83.3893 58.8595 83.3893 58.8444L83.3392 58.4684C83.3392 58.4684 83.3392 58.4434 83.3392 58.4333L83.3292 58.4434Z" fill="#45713A"/>
<path d="M220.952 42.8323V58.9096C220.952 59.6716 221.022 60.4336 221.167 61.1806C221.919 65.0507 225.072 75.7889 236.733 74.9217C236.733 74.9217 244.554 75.5333 249.637 69.0412C251.788 66.294 252.891 62.875 252.891 59.3909V42.7621H238.087V56.1373C238.087 56.1373 238.041 57.2252 239.886 57.4708C239.886 57.4708 237.355 58.5587 236.888 60.3835C236.888 60.3835 236.362 58.5236 233.805 57.4708C233.805 57.4708 235.269 57.0397 235.645 56.1724V42.7972C235.645 42.7972 220.786 42.8323 220.952 42.8323Z" fill="#45713A"/>
<path d="M255.974 42.7571H270.026L275.059 57.3355V42.8323H289.637V74.4705H275.36L270.251 58.0122V74.4705H256.274L255.974 42.7571Z" fill="#45713A"/>
<path d="M294.68 42.7621H310.236V74.5507H294.344C294.344 74.5507 294.68 42.4263 294.68 42.7621Z" fill="#45713A"/>
<path d="M313.991 42.7571H349.329V58.4835H338.34V74.5457H324.815V58.8194H314.162C314.162 58.8194 313.485 42.7571 313.991 42.7571Z" fill="#45713A"/>
<path d="M352.662 42.7571H366.865L370.755 48.6777L375.317 42.9276H390.031L378.701 58.6539V74.2098H363.651V58.6539L352.662 42.7571Z" fill="#45713A"/>
<path d="M101.477 42.7571C91.9923 42.7571 84.3071 50.4474 84.3071 59.9273C84.3071 69.4072 91.9973 77.0974 101.477 77.0974C110.957 77.0974 118.647 69.4072 118.647 59.9273C118.647 50.4474 110.957 42.7571 101.477 42.7571ZM102.615 61.0653L101.477 63.1457L100.339 61.0653L98.2588 59.9273L100.339 58.7893L101.477 56.7088L102.615 58.7893L104.696 59.9273L102.615 61.0653Z" fill="#45713A"/>
<path d="M118.196 75.2175H132.518L134.042 64.2486L137.928 75.2926H147.603L151.338 64.8552L153.168 75.3729H167.415L162.156 42.8373H148.139L142.73 56.8542L137.471 42.7571H123.374L118.196 75.2175Z" fill="#45713A"/>
<path d="M169.981 75.2175H184.304L185.828 64.2486L189.718 75.2926H199.394L203.129 64.8552L204.953 75.3729H219.201L213.947 42.8373H199.925L194.516 56.8542L189.257 42.7571H175.165L169.981 75.2175Z" fill="#45713A"/>
</g>
</svg>
