<svg width="227" height="149" fill="none" xmlns="http://www.w3.org/2000/svg"><g clip-path="url(#a)"><path d="M103.125 117.353c-11.182-9.865-23.021-20.149-37.622-24.43a47.946 47.946 0 0 0-14.075-1.9c-.248-.034-.5-.03-.748.011a60.25 60.25 0 0 0-30.44 9.728A91.515 91.515 0 0 0 .785 117.83a2.418 2.418 0 0 0-.63 1.526 2.04 2.04 0 0 0 .63 2.388c11.182 9.866 23.021 20.149 37.622 24.431a47.391 47.391 0 0 0 10.287 1.805c1.2.112 2.407.145 3.612.1a59.98 59.98 0 0 0 31.364-9.741 91.573 91.573 0 0 0 19.454-17.068c.383-.419.605-.959.629-1.526a2.041 2.041 0 0 0-.629-2.392Zm-97.418 2.259c9.39-10.292 20.873-18.945 34.592-22.336.16-.039.321-.074.481-.112a34.069 34.069 0 0 0-11.628 18.254c-1.449 5.528-2.323 12.149-.836 17.751a15.775 15.775 0 0 0 2.03 4.517 75.546 75.546 0 0 1-7.152-4.2 162.254 162.254 0 0 1-17.487-13.874Zm65.93 19.543a30.805 30.805 0 0 0 8.046-25.148 22.346 22.346 0 0 0-6.928-13 74.268 74.268 0 0 1 7.961 4.613 162.202 162.202 0 0 1 17.487 13.871c-7.496 8.211-16.329 15.38-26.566 19.664Z" fill="#D94A37"/></g><g clip-path="url(#b)" stroke="#D94A37" stroke-width="5" stroke-miterlimit="10"><path d="M1.794 68.091 20.881 50.63l8.18 18.221 14.724-16.956s-3.817 17.968.545 17.209c4.362-.759 36.538-17.968 36.538-17.968s-9.816 18.474-8.18 17.715c1.636-.759 30.539-12.907 30.539-12.907s-3.272 21.511-.546 17.715c2.726-3.796 23.995-17.462 23.995-17.462l10.907 12.4 29.994-14.172 9.816 13.159 20.177-11.894 1.636 14.172 19.633-10.629 6 8.858M1.794 28.02 20.881 8.361l8.18 20.513L43.785 9.785s-3.817 20.23.545 19.374c4.362-.855 36.538-20.228 36.538-20.228s-9.816 20.8-8.18 19.943c1.636-.857 30.539-14.53 30.539-14.53s-3.272 24.217-.546 19.944 23.995-19.659 23.995-19.659l10.907 13.961 29.994-15.955 9.816 14.815 20.177-13.39 1.636 15.954 19.633-11.966 6 9.972"/></g><defs><clipPath id="a"><path fill="#fff" transform="translate(0 91)" d="M0 0h103.91v57.097H0z"/></clipPath><clipPath id="b"><path fill="#fff" d="M0 0h226.979v76.655H0z"/></clipPath></defs></svg>