<?xml version="1.0" standalone="no"?>
<!DOCTYPE svg PUBLIC "-//W3C//DTD SVG 20010904//EN"
 "http://www.w3.org/TR/2001/REC-SVG-20010904/DTD/svg10.dtd">
<svg version="1.0" xmlns="http://www.w3.org/2000/svg"
 width="700.000000pt" height="700.000000pt" viewBox="0 0 700.000000 700.000000"
 preserveAspectRatio="xMidYMid meet">
<metadata>
Created by potrace 1.14, written by Peter Selinger 2001-2017
</metadata>
<g transform="translate(0.000000,700.000000) scale(0.100000,-0.100000)"
fill="#000000" stroke="none">
<path d="M4875 5645 c-2 -5 -22 -93 -45 -195 -38 -165 -81 -349 -126 -540 -9
-36 -18 -76 -20 -90 -3 -14 -14 -59 -24 -100 -10 -41 -21 -88 -24 -104 -7 -40
-14 -43 -22 -10 -3 16 -12 49 -19 74 -8 25 -21 72 -30 105 -10 33 -26 89 -36
125 -48 165 -90 317 -95 340 -2 14 -9 36 -13 50 -5 14 -12 37 -15 53 l-6 27
-103 1 c-56 1 -116 0 -132 -1 l-30 -1 -35 125 -35 126 -757 0 -757 0 -11 -42
c-6 -24 -13 -51 -16 -60 -3 -9 -7 -25 -9 -35 -2 -10 -13 -56 -25 -103 -11 -47
-23 -92 -25 -100 -2 -8 -15 -62 -30 -120 -15 -58 -28 -112 -30 -120 -2 -8 -27
-107 -55 -220 -58 -226 -54 -210 -65 -262 -7 -36 -21 -52 -22 -25 -1 6 -13 57
-28 112 -15 55 -29 109 -31 120 -2 11 -37 151 -77 310 l-73 290 -136 3 -136 3
-21 87 c-12 48 -26 104 -32 125 l-10 37 -820 0 -821 0 7 -32 c3 -18 10 -44 15
-58 5 -14 36 -135 70 -270 33 -135 65 -258 70 -275 5 -16 11 -41 14 -55 2 -14
16 -68 29 -120 27 -103 197 -765 202 -790 2 -8 18 -69 35 -135 17 -66 32 -127
34 -135 2 -8 14 -53 25 -100 12 -47 30 -116 41 -155 16 -58 124 -486 135 -535
2 -8 22 -85 44 -170 21 -85 76 -299 121 -475 45 -176 100 -390 122 -475 22
-85 45 -177 52 -205 l11 -50 133 -2 c74 0 136 -4 139 -7 3 -3 18 -56 34 -117
16 -62 31 -115 35 -118 3 -3 360 -6 794 -7 l789 0 32 110 c17 61 40 136 49
166 10 30 27 87 39 125 143 483 257 864 273 910 5 17 11 39 14 50 12 58 42
136 48 127 6 -10 115 -375 146 -487 11 -40 124 -426 145 -494 9 -30 19 -62 21
-70 2 -9 14 -51 26 -93 l21 -78 133 0 133 0 21 -72 c12 -40 29 -97 38 -126
l16 -52 823 0 823 0 10 23 c7 16 118 423 176 647 15 57 89 335 154 575 28 105
60 224 71 265 18 69 69 260 255 950 36 135 88 328 115 430 28 102 52 192 54
200 4 22 94 353 116 430 10 36 20 76 23 90 3 14 15 59 26 100 12 41 34 125 50
185 17 61 32 120 36 131 6 21 4 22 -158 22 -255 1 -241 -1 -233 20 3 9 19 65
34 123 l28 105 -855 0 c-587 0 -855 -3 -857 -11z"/>
</g>
</svg>
