<svg width="666" height="230" fill="none" xmlns="http://www.w3.org/2000/svg"><g style="mix-blend-mode:multiply" clip-path="url(#a)"><path d="M630.88 114.52c75.7-41.09 4.07-90.3 4.07-90.3-101.97-54.5-206.58 0-206.58 0-124.83-46.59-194.27 1.76-194.27 1.76C151.47-15.33 55.65 14.55 55.65 14.55c-106.12 51.38-29.07 96.3-22.43 99.97-6.64 3.67-83.7 48.59 22.43 99.97 0 0 95.82 29.89 178.45-11.43 0 0 69.45 48.35 194.27 1.76 0 0 104.61 54.5 206.58 0 0 0 71.62-49.2-4.07-90.3Z" fill="#F6A917"/></g><defs><clipPath id="a"><path fill="#fff" d="M0 0h665.61v229.04H0z"/></clipPath></defs></svg>