<svg width="53" height="41" fill="none" xmlns="http://www.w3.org/2000/svg"><path d="M33.254 2.417a39.256 39.256 0 0 1 9.802 3.002 39.403 39.403 0 0 1 7.074 26.87 39.335 39.335 0 0 1-12.04 6.015 28.766 28.766 0 0 1-2.575-4.134 25.547 25.547 0 0 0 4.063-1.928 23.82 23.82 0 0 1-.992-.767 28.336 28.336 0 0 1-12.028 2.677c-4.16 0-8.267-.914-12.027-2.677-.316.255-.642.51-.979.762 1.292.758 2.649 1.4 4.054 1.92a29.171 29.171 0 0 1-2.577 4.142 39.548 39.548 0 0 1-12.02-6.018 39.438 39.438 0 0 1 7.027-26.849 38.944 38.944 0 0 1 9.812-3.015c.476.827.908 1.678 1.295 2.55 3.601-.534 7.262-.534 10.863 0 .369-.875.788-1.728 1.255-2.555l-.007.005Zm1.21 24.463a4.575 4.575 0 0 0 3.126-1.505 4.495 4.495 0 0 0 1.148-3.251 4.223 4.223 0 0 0-1.065-3.324 4.297 4.297 0 0 0-1.453-1.052 4.33 4.33 0 0 0-4.968 1.062 4.226 4.226 0 0 0-1.054 3.327 4.504 4.504 0 0 0 1.155 3.24c.8.888 1.92 1.427 3.118 1.503h-.007Zm-15.779 0a4.574 4.574 0 0 0 3.126-1.505 4.494 4.494 0 0 0 1.148-3.251 4.227 4.227 0 0 0-1.074-3.313 4.3 4.3 0 0 0-1.451-1.047 4.332 4.332 0 0 0-4.959 1.057 4.228 4.228 0 0 0-1.064 3.316 4.504 4.504 0 0 0 1.156 3.24c.8.888 1.92 1.427 3.118 1.503ZM21.006 0l-1.528.257a41.19 41.19 0 0 0-10.37 3.186l-.562.258-.345.51a41.625 41.625 0 0 0-7.395 28.28l.093.97.79.585a41.662 41.662 0 0 0 12.702 6.352l1.496.452.927-1.246a31.49 31.49 0 0 0 2.593-4.11 30.424 30.424 0 0 0 14.314 0 31.31 31.31 0 0 0 2.601 4.118l.927 1.242 1.492-.448a41.447 41.447 0 0 0 12.706-6.356l.787-.584.093-.969a41.788 41.788 0 0 0-7.444-28.31l-.345-.502-.552-.257A41.52 41.52 0 0 0 33.623.258L32.1 0l-.766 1.33c-.215.372-.442.808-.672 1.264a39.228 39.228 0 0 0-8.212 0 28.002 28.002 0 0 0-.679-1.259L21.006 0Zm13.45 24.693a2.399 2.399 0 0 1-1.545-.867 2.358 2.358 0 0 1-.517-1.685 2.34 2.34 0 0 1 .505-1.7 2.38 2.38 0 0 1 1.558-.87 1.846 1.846 0 0 1 1.305.57c.504.531.774 1.237.754 1.965a2.37 2.37 0 0 1-.508 1.704 2.411 2.411 0 0 1-1.556.883h.005Zm-15.79 0a2.398 2.398 0 0 1-1.546-.867 2.357 2.357 0 0 1-.517-1.685 2.34 2.34 0 0 1 .505-1.7 2.38 2.38 0 0 1 1.558-.87 1.846 1.846 0 0 1 1.306.57c.504.532.777 1.24.757 1.97a2.367 2.367 0 0 1-.508 1.701 2.407 2.407 0 0 1-1.555.881Z" fill="#000"/></svg>