<svg width="143" height="143" fill="none" xmlns="http://www.w3.org/2000/svg"><path d="M71.209 0A71.216 71.216 0 0 0 0 71.225v.009a71.21 71.21 0 0 0 71.218 71.2h.008a71.215 71.215 0 0 0 50.343-121.581A71.205 71.205 0 0 0 71.209 0Zm45.757 94.685a75.766 75.766 0 0 1-23.252 11.734 56.415 56.415 0 0 1-4.983-8.063 49.146 49.146 0 0 0 7.856-3.762 43.601 43.601 0 0 1-1.918-1.5 54.382 54.382 0 0 1-46.5 0c-.61.498-1.24.993-1.893 1.486a49.32 49.32 0 0 0 7.839 3.746 57.138 57.138 0 0 1-4.983 8.08A76.211 76.211 0 0 1 25.88 94.672c-1.619-17.14 1.628-34.546 13.586-52.375a74.861 74.861 0 0 1 18.967-5.88 53.856 53.856 0 0 1 2.491 4.983 71.137 71.137 0 0 1 21 0 48.616 48.616 0 0 1 2.424-4.983 75.441 75.441 0 0 1 18.951 5.855c10.395 15.293 15.56 32.541 13.667 52.413Z" fill="#fff"/><path d="M56.154 65.611c-4.618 0-8.255 4.186-8.255 9.285s3.72 9.251 8.255 9.251c4.617 0 8.221-4.169 8.262-9.276.041-5.107-3.645-9.26-8.262-9.26ZM86.672 65.611c-4.617 0-8.255 4.186-8.255 9.285s3.72 9.251 8.255 9.251c4.617 0 8.2-4.169 8.255-9.276.055-5.107-3.638-9.26-8.255-9.26Z" fill="#fff"/></svg>