<svg width="50" height="50" fill="none" xmlns="http://www.w3.org/2000/svg"><path d="M24.785.076a24.706 24.706 0 1 0 .002 49.413A24.706 24.706 0 0 0 24.785.076ZM40.66 32.923a26.301 26.301 0 0 1-8.066 4.07 19.475 19.475 0 0 1-1.73-2.793 17.154 17.154 0 0 0 2.727-1.309c-.225-.164-.45-.337-.666-.517a18.872 18.872 0 0 1-16.133 0c-.211.173-.43.344-.657.515.866.513 1.777.95 2.72 1.3a19.893 19.893 0 0 1-1.729 2.803 26.432 26.432 0 0 1-8.066-4.07 26.874 26.874 0 0 1 4.706-18.17 25.966 25.966 0 0 1 6.58-2.04c.317.561.606 1.138.864 1.728 2.415-.36 4.87-.36 7.285 0 .248-.591.529-1.168.841-1.727a26.15 26.15 0 0 1 6.574 2.03 26.84 26.84 0 0 1 4.759 18.173l-.009.007Z" fill="#000"/><path d="M19.568 22.83a3.235 3.235 0 1 0 2.867 3.214 3.055 3.055 0 0 0-2.867-3.215ZM30.156 22.83a3.234 3.234 0 1 0 2.863 3.214 3.05 3.05 0 0 0-2.863-3.214Z" fill="#000"/></svg>