<svg width="30" height="30" fill="none" xmlns="http://www.w3.org/2000/svg"><path d="M1.232 15.069V28.57h6.474V10.19H1.232v4.879ZM4.469 1c-.64 0-1.267.188-1.8.542a3.221 3.221 0 0 0-1.193 1.443 3.196 3.196 0 0 0 .702 3.506 3.258 3.258 0 0 0 3.53.697A3.233 3.233 0 0 0 7.16 6.003a3.201 3.201 0 0 0-.403-4.061A3.248 3.248 0 0 0 4.468 1v0ZM28.845 15.836c-.436-3.464-2.039-5.646-6.754-5.646-2.798 0-4.676 1.03-5.444 2.481h-.08V10.19h-5.162v18.38H16.8v-9.109c0-2.402.46-4.729 3.447-4.729 2.948 0 3.184 2.746 3.184 4.884v8.954h5.555V18.472c.008-.881-.04-1.761-.141-2.636v0Z" stroke="#000" stroke-width="1.5" stroke-linecap="square" stroke-linejoin="round"/></svg>