<svg width="50" height="50" fill="none" xmlns="http://www.w3.org/2000/svg"><path d="M24.919 20.037a4.738 4.738 0 0 0-4.644 5.661 4.734 4.734 0 0 0 6.457 3.451 4.737 4.737 0 0 0 2.925-4.374 4.742 4.742 0 0 0-4.738-4.738Z" fill="#000"/><path d="M30.791 12.583h-11.99a6.202 6.202 0 0 0-6.196 6.196V30.77a6.203 6.203 0 0 0 6.195 6.196h11.991a6.203 6.203 0 0 0 6.196-6.196V18.78a6.2 6.2 0 0 0-6.196-6.196ZM24.92 32.17a7.398 7.398 0 0 1-1.442-14.652 7.397 7.397 0 1 1 1.442 14.652Zm7.828-13.53a1.765 1.765 0 1 1 0-3.529 1.765 1.765 0 0 1 0 3.53Z" fill="#000"/><path d="M24.796 0a24.775 24.775 0 1 0-.002 49.55A24.775 24.775 0 0 0 24.796 0Zm15.017 30.77a9.031 9.031 0 0 1-9.022 9.02H18.8a9.03 9.03 0 0 1-9.02-9.02V18.78a9.033 9.033 0 0 1 9.02-9.022H30.79a9.032 9.032 0 0 1 9.022 9.022V30.77Z" fill="#000"/></svg>