<svg width="36" height="35" fill="none" xmlns="http://www.w3.org/2000/svg"><path d="M18.113 13.846a3.273 3.273 0 1 0 0 6.547 3.273 3.273 0 0 0 0-6.547Z" fill="#fff"/><path d="M22.171 8.696h-8.287a4.286 4.286 0 0 0-4.281 4.281v8.287a4.286 4.286 0 0 0 4.281 4.281h8.287a4.286 4.286 0 0 0 4.281-4.281v-8.287a4.284 4.284 0 0 0-4.281-4.281Zm-4.058 13.536a5.113 5.113 0 0 1-.997-10.126 5.111 5.111 0 1 1 .997 10.126Zm5.41-9.35a1.22 1.22 0 1 1 0-2.44 1.22 1.22 0 0 1 0 2.44Z" fill="#fff"/><path d="M18.028 0a17.12 17.12 0 1 0-.001 34.24A17.12 17.12 0 0 0 18.028 0Zm10.378 21.264a6.241 6.241 0 0 1-6.235 6.233h-8.286a6.24 6.24 0 0 1-6.234-6.233v-8.287a6.242 6.242 0 0 1 6.234-6.234h8.286a6.241 6.241 0 0 1 6.235 6.234v8.287Z" fill="#fff"/></svg>