<svg width="38" height="37" fill="none" xmlns="http://www.w3.org/2000/svg"><path fill-rule="evenodd" clip-rule="evenodd" d="M30.88 18.189c.002-2.321-.692-4.59-1.992-6.52a11.815 11.815 0 0 0-5.31-4.324 11.935 11.935 0 0 0-6.84-.67 11.87 11.87 0 0 0-6.062 3.21 11.701 11.701 0 0 0-3.241 6.007 11.636 11.636 0 0 0 .672 6.78 11.755 11.755 0 0 0 4.36 5.265 11.912 11.912 0 0 0 6.577 1.978 11.89 11.89 0 0 0 8.367-3.434 11.68 11.68 0 0 0 3.47-8.293Zm-.225-13.33c-.377 0-.745.11-1.058.318a1.892 1.892 0 0 0-.701.848 1.872 1.872 0 0 0 .413 2.057 1.91 1.91 0 0 0 2.076.41c.348-.143.646-.385.855-.695a1.877 1.877 0 0 0-.237-2.385 1.916 1.916 0 0 0-1.348-.554ZM9.37 2.148h19.347a6.554 6.554 0 0 1 4.595 1.892 6.438 6.438 0 0 1 1.913 4.554v19.177a6.432 6.432 0 0 1-1.91 4.555 6.547 6.547 0 0 1-4.598 1.891H9.37a6.55 6.55 0 0 1-4.596-1.891 6.435 6.435 0 0 1-1.912-4.555V8.595a6.44 6.44 0 0 1 1.914-4.553A6.556 6.556 0 0 1 9.37 2.149ZM28.717 0H9.37a8.742 8.742 0 0 0-6.125 2.525 8.587 8.587 0 0 0-2.55 6.07v19.177A8.58 8.58 0 0 0 3.24 33.85a8.734 8.734 0 0 0 6.13 2.526h19.347a8.734 8.734 0 0 0 6.129-2.527 8.58 8.58 0 0 0 2.544-6.077V8.595a8.58 8.58 0 0 0-2.548-6.072A8.734 8.734 0 0 0 28.714 0h.003ZM9.667 18.189c0-1.838.55-3.635 1.58-5.164a9.358 9.358 0 0 1 4.208-3.423 9.453 9.453 0 0 1 5.417-.53 9.402 9.402 0 0 1 4.8 2.544 9.267 9.267 0 0 1 2.567 4.758 9.216 9.216 0 0 1-.533 5.369 9.31 9.31 0 0 1-3.453 4.17 9.435 9.435 0 0 1-11.837-1.157 9.257 9.257 0 0 1-2.748-6.569" fill="#000"/></svg>