<svg width="51" height="50" fill="none" xmlns="http://www.w3.org/2000/svg"><path d="M25.118 50c13.807 0 25-11.193 25-25s-11.193-25-25-25-25 11.193-25 25 11.193 25 25 25Z" fill="#000"/><path d="M8.941 36.748v-.657c.06-.02.14-.025.174-.066 1.131-1.33 2.274-2.651 3.371-4.009.204-.251.308-.647.31-.977.015-4.663.017-9.327-.023-13.99-.003-.438-.225-.939-.502-1.294-.84-1.08-1.765-2.095-2.634-3.154-.167-.203-.226-.49-.371-.822 3.038 0 5.907.015 8.776-.014.518-.005.732.177.933.611 2.202 4.755 4.425 9.499 6.643 14.245.093.2.2.391.34.66.106-.228.165-.344.215-.465 1.98-4.82 3.965-9.64 5.926-14.467.177-.437.391-.586.873-.582 2.759.024 5.518.012 8.276.012v.526c-.767.704-1.521 1.42-2.303 2.108-.395.347-.575.74-.573 1.261.011 5.78 0 11.56.033 17.34.001.365.223.798.48 1.08.608.671 1.31 1.26 1.95 1.902.175.176.266.43.46.759H28.432c.201-.333.297-.59.476-.768.675-.67 1.408-1.29 2.054-1.985.244-.262.44-.677.442-1.024.03-4.51.021-9.02.019-13.53 0-.15-.036-.299-.08-.637l-7.191 17.837c-.789.317-1.082-.045-1.348-.616-2.543-5.462-5.109-10.915-7.668-16.37-.104-.219-.214-.435-.322-.653a.683.683 0 0 0-.138.43c-.002 3.788.005 7.576-.007 11.363-.002.6.16 1.101.56 1.564a166.76 166.76 0 0 1 2.988 3.552c.167.205.225.494.372.83H8.94Z" fill="#fff"/></svg>