<svg width="35" height="35" fill="none" xmlns="http://www.w3.org/2000/svg"><path d="M17.724 34.552C27.265 34.552 35 26.818 35 17.276 35 7.735 27.265 0 17.724 0S.448 7.735.448 17.276c0 9.542 7.735 17.276 17.276 17.276Z" fill="#fff"/><path d="M4.772 25.936v-.455c.044-.014.103-.017.128-.046.832-.92 1.672-1.834 2.478-2.773.15-.174.227-.448.228-.676.011-3.227.013-6.454-.017-9.68-.002-.303-.165-.65-.368-.896-.618-.747-1.299-1.45-1.937-2.182-.123-.14-.166-.339-.273-.569 2.234 0 4.343.01 6.452-.01.38-.003.539.123.686.424 1.619 3.29 3.253 6.572 4.884 9.856.069.137.147.27.25.457.077-.158.121-.239.158-.322 1.455-3.336 2.915-6.67 4.357-10.01.13-.302.287-.406.642-.403 2.028.016 4.056.008 6.084.008v.364c-.564.488-1.118.983-1.693 1.459-.29.24-.423.512-.421.873.008 3.999 0 7.998.024 11.997 0 .253.164.552.353.748.447.464.963.87 1.434 1.316.128.12.195.297.337.524h-9.455c.147-.23.217-.408.35-.53.496-.465 1.034-.893 1.51-1.375.179-.18.323-.468.325-.708.022-3.12.015-6.241.013-9.361 0-.104-.026-.207-.058-.44-1.81 4.222-3.562 8.315-5.287 12.34-.58.22-.796-.03-.991-.426-1.87-3.78-3.756-7.552-5.638-11.326-.076-.152-.157-.301-.237-.452a.453.453 0 0 0-.1.298c-.002 2.62.003 5.241-.006 7.861-.001.415.117.762.412 1.083.745.81 1.476 1.63 2.196 2.458.123.141.166.34.274.574H4.772Z" fill="#000"/></svg>