<svg width="46" height="35" fill="none" xmlns="http://www.w3.org/2000/svg"><path d="M1.39 33.976v-.867c.077-.027.18-.033.225-.087 1.469-1.756 2.952-3.5 4.377-5.291.264-.332.4-.855.401-1.29.02-6.156.024-12.311-.029-18.467-.004-.577-.292-1.238-.651-1.707C4.623 4.842 3.42 3.5 2.293 2.104c-.216-.268-.293-.647-.482-1.085 3.944 0 7.67.02 11.394-.019.671-.007.95.234 1.21.807 2.858 6.275 5.745 12.537 8.625 18.803.12.262.26.516.44.871.138-.301.215-.455.28-.614 2.57-6.363 5.147-12.724 7.693-19.096.23-.576.509-.772 1.133-.766 3.582.03 7.163.015 10.743.015v.693c-.995.93-1.974 1.876-2.989 2.782-.513.459-.746.978-.744 1.665.015 7.63.001 15.26.043 22.887.002.483.29 1.054.623 1.427.79.885 1.701 1.661 2.532 2.51.227.232.345.568.596 1.001H26.694c.26-.438.385-.778.618-1.013.876-.886 1.827-1.703 2.667-2.62.315-.346.57-.894.573-1.352.039-5.953.028-11.907.024-17.858 0-.198-.047-.395-.102-.84l-9.337 23.542c-1.024.419-1.404-.06-1.75-.813-3.301-7.21-6.632-14.406-9.954-21.606-.134-.29-.278-.575-.419-.863a.912.912 0 0 0-.178.568c-.002 5 .006 9.999-.01 14.998-.001.791.207 1.453.728 2.064a219.439 219.439 0 0 1 3.878 4.69c.218.27.292.65.483 1.095H1.39Z" stroke="#000" stroke-width="2" stroke-miterlimit="10"/></svg>