<svg width="35" height="35" fill="none" xmlns="http://www.w3.org/2000/svg"><path d="M17.12 0a17.12 17.12 0 1 0 0 34.24 17.12 17.12 0 0 0 0-34.24Zm11.258 10.135a.566.566 0 0 1-.118.356 8.869 8.869 0 0 1-1.79 1.86c-.101.077-.272.157-.272.305 0 3.699-.945 7.39-3.64 10.068a13.545 13.545 0 0 1-13.15 3.075 12.63 12.63 0 0 1-2.54-1.016c-.27-.149-.534-.299-.793-.47-.066-.054-.115-.103-.059-.139.056-.035.102-.029.305 0a8.97 8.97 0 0 0 3.805-.486 5.825 5.825 0 0 0 2.505-1.328c.009-.015.02-.015.03-.03-.167-.038-.334-.038-.5-.068a4.909 4.909 0 0 1-3.668-3.07c-.048-.121 0-.187.128-.161.58.079 1.17.06 1.745-.054a2.733 2.733 0 0 1-.592-.182 4.729 4.729 0 0 1-2.914-3.77 2.774 2.774 0 0 1-.03-.529c.01-.122.064-.161.172-.093a4.673 4.673 0 0 0 1.78.497 7.462 7.462 0 0 1-.568-.497 4.677 4.677 0 0 1-.796-5.527c.088-.132.146-.132.254-.009a14.336 14.336 0 0 0 9.224 4.695c.102.015.107 0 .093-.108a4.938 4.938 0 0 1 .047-1.93c.167-.67.48-1.294.915-1.829a4.87 4.87 0 0 1 1.524-1.247 4.767 4.767 0 0 1 1.893-.534 4.527 4.527 0 0 1 1.995.32c.473.194.912.463 1.3.797.084.074.162.154.234.24a.182.182 0 0 0 .185.049c.934-.23 1.836-.576 2.685-1.028a.126.126 0 0 1 .12-.01c.038.03.024.078.005.117-.161.5-.416.966-.752 1.37-.215.268-.75.927-1.118.989a9.257 9.257 0 0 0 2.264-.647c.09-.042.092-.06.092 0v.024Z" fill="#fff"/></svg>