<svg width="45" height="38" fill="none" xmlns="http://www.w3.org/2000/svg"><path d="M30.205 2.191a8.142 8.142 0 0 1 3.038.584c.846.343 1.63.82 2.323 1.411.15.131.291.273.42.425a.312.312 0 0 0 .23.1.42.42 0 0 0 .1-.013 20.719 20.719 0 0 0 4.797-1.817.28.28 0 0 1 .125-.037c.031 0 .062.007.09.019.07.053.044.146.009.209a7.346 7.346 0 0 1-1.343 2.426c-.383.472-1.34 1.639-1.99 1.753a16.606 16.606 0 0 0 4.046-1.144c.048-.026.097-.048.148-.067.016 0 .017.019.017.067v.03c.004.229-.071.451-.212.632a15.805 15.805 0 0 1-3.198 3.295c-.181.136-.488.278-.488.533 0 6.549-1.687 13.087-6.502 17.83a23.203 23.203 0 0 1-16.41 6.399 26.877 26.877 0 0 1-7.085-.954 22.587 22.587 0 0 1-4.545-1.803c-.48-.258-.952-.528-1.416-.83-.116-.096-.205-.182-.105-.243a.359.359 0 0 1 .176-.038c.123.004.245.017.367.038.466.045.936.068 1.409.069a16.589 16.589 0 0 0 5.387-.93c1.19-.413 3.74-1.241 4.476-2.353.018-.024.035-.024.053-.052-.295-.069-.59-.069-.884-.12a8.809 8.809 0 0 1-3.99-1.875 8.699 8.699 0 0 1-2.564-3.565c-.075-.185-.022-.292.139-.292.03 0 .06.003.088.009.628.048 1.117.069 1.517.069.539.009 1.077-.046 1.603-.164a4.983 4.983 0 0 1-1.057-.321 8.442 8.442 0 0 1-3.522-2.64 8.336 8.336 0 0 1-1.697-4.04 4.993 4.993 0 0 1-.052-.936c.01-.146.057-.224.147-.224a.32.32 0 0 1 .16.059c.98.489 2.045.79 3.139.886h.04c-.356-.276-.689-.584-1.012-.876-2.422-2.276-3.364-6.906-1.425-9.787.081-.118.148-.177.218-.177.071 0 .148.055.238.161 4.441 4.996 9.894 7.331 16.483 8.304a.745.745 0 0 0 .087.008c.091 0 .099-.047.078-.2a8.672 8.672 0 0 1 .087-3.413 8.26 8.26 0 0 1 1.621-3.234 8.68 8.68 0 0 1 2.738-2.207 8.554 8.554 0 0 1 3.914-.964h-.011ZM30.216 0c-.222 0-.442 0-.667.022a10.831 10.831 0 0 0-4.278 1.193 10.972 10.972 0 0 0-3.422 2.776 10.483 10.483 0 0 0-2.064 4.09 9.524 9.524 0 0 0-.244 1.511A22.263 22.263 0 0 1 6.867 2.445a2.474 2.474 0 0 0-1.898-.907 2.44 2.44 0 0 0-1.183.31 2.415 2.415 0 0 0-.88.843 9.822 9.822 0 0 0-.53 9.262 2.464 2.464 0 0 0-.885 1.735c-.024.462-.003.925.063 1.382a10.577 10.577 0 0 0 3.023 6.119 2.427 2.427 0 0 0 .046 1.79 9.96 9.96 0 0 0 4.126 5.126 14.413 14.413 0 0 1-4.545.768c-.386 0-.77-.017-1.144-.052a4.34 4.34 0 0 0-.63-.054 2.562 2.562 0 0 0-1.169.272l-.085.042-.083.05a2.263 2.263 0 0 0-1.09 1.788 2.341 2.341 0 0 0 .967 2.026l.083.064.087.057c.46.302.946.584 1.576.927a24.983 24.983 0 0 0 5.018 1.987c2.499.684 5.08 1.032 7.673 1.033a25.412 25.412 0 0 0 9.691-1.743 25.238 25.238 0 0 0 8.278-5.29c4.502-4.433 6.963-10.801 7.145-18.46a18.326 18.326 0 0 0 3.256-3.44 3.16 3.16 0 0 0 .652-1.942 2.215 2.215 0 0 0-.284-1.155 2.24 2.24 0 0 0-.84-.846c.04-.105.076-.21.11-.317.19-.47.22-.99.084-1.478a2.307 2.307 0 0 0-.839-1.225l-.24-.18-.281-.112a2.448 2.448 0 0 0-2.018.097 18.412 18.412 0 0 1-3.38 1.387A10.588 10.588 0 0 0 34.077.748 10.263 10.263 0 0 0 30.205 0" fill="#000"/></svg>