<svg width="94" height="77" fill="none" xmlns="http://www.w3.org/2000/svg"><path d="M0 67.663a54.526 54.526 0 0 0 29.534 8.658c35.773 0 55.983-30.215 54.766-57.316a39.06 39.06 0 0 0 9.613-9.972 38.548 38.548 0 0 1-11.065 3.031 19.292 19.292 0 0 0 8.469-10.659 38.63 38.63 0 0 1-12.232 4.678 19.28 19.28 0 0 0-32.834 17.574A54.683 54.683 0 0 1 6.54 3.524a19.292 19.292 0 0 0 5.963 25.726 19.194 19.194 0 0 1-8.731-2.412 19.292 19.292 0 0 0 15.454 19.138 19.3 19.3 0 0 1-8.7.328 19.274 19.274 0 0 0 18 13.381A38.72 38.72 0 0 1 0 67.663Z" fill="#F4F3F2"/></svg>