<svg width="31" height="28" fill="none" xmlns="http://www.w3.org/2000/svg"><g clip-path="url(#a)" stroke="#000" stroke-width="1.5" stroke-linecap="round" stroke-linejoin="round"><path d="M15.86 1.74c-1.769 0-4.273 4.083-4.642 10.61H20.5c-.37-6.527-2.873-10.61-4.64-10.61ZM11.218 15.649c.369 6.528 2.87 10.61 4.641 10.61 1.772 0 4.272-4.082 4.641-10.61h-9.282ZM23.908 12.35h6.183a13.715 13.715 0 0 0-3.183-7.209A14.373 14.373 0 0 0 20.215.746c2.055 2.429 3.442 6.594 3.693 11.604ZM7.81 12.35C8.063 7.34 9.45 3.175 11.5.746a14.373 14.373 0 0 0-6.692 4.396 13.715 13.715 0 0 0-3.18 7.208H7.81ZM23.908 15.649c-.252 5.01-1.64 9.175-3.69 11.604a14.374 14.374 0 0 0 6.694-4.395 13.715 13.715 0 0 0 3.182-7.209h-6.186ZM7.81 15.649H1.628a13.715 13.715 0 0 0 3.183 7.209 14.373 14.373 0 0 0 6.693 4.395C9.448 24.823 8.062 20.66 7.81 15.65Z"/></g><defs><clipPath id="a"><path fill="#fff" transform="translate(.859)" d="M0 0h30v28H0z"/></clipPath></defs></svg>