<svg width="883" height="862" fill="none" xmlns="http://www.w3.org/2000/svg"><g clip-path="url(#a)"><path d="M1.536 496.645s-56.465-303.5 515.237-494.063c0 0 182.885-26.126 174.692 87.827-1.8 25-12.557 48.523-29.617 66.891-38.72 41.692-125.611 139.735-79.2 132.309 0 0 169.393-40 223.505-2.353 51.191 35.612 117.123 75.435 44.408 173.254a665.11 665.11 0 0 0-27.141 39.4c-38.748 60.509-163.241 230.8-388.991 326.115-28.314 11.955-62.738 29.8-99.6 34.506-42.333 5.405-88.04-10.988-119.791-39.505-31.751-28.517-51.17-73.815-1.764-140.867 0 0 29.8-39.995 23.527-83.912 0 0-12.548-29.016-58.033-10.2.003 0-145.863 49.406-177.232-89.402Z" fill="#A4C1D7" style="mix-blend-mode:multiply"/></g><defs><clipPath id="a"><path fill="#fff" d="M0 0h882.802v861.551H0z"/></clipPath></defs></svg>