<svg width="324" height="232" fill="none" xmlns="http://www.w3.org/2000/svg"><g clip-path="url(#a)"><path d="M274.17 133.49 78.72 213.82l102-154.73h10.56l1.15 5.19 4.53-4.92s9.33-.19 9.36-.13c.03.06 1.15 3.08 1.15 3.08l4.84-3.5s10.59-.13 10.56.31c-.03.44-1.92 8-1.92 8l5.18-3.45 4.96-3.87 5.37-1.01 11.45 5.72 8.07-5.83h11.57l1.83 4.9 6.97-4.75 11.51-.04.71 4.52 6.76-4.4 23.37-.06v9.43h-10.32v1.59l8.16.1v4.26h-8.07v1.83l10.23.1v9.1l-8.41 8.86-36.13 39.37h.01Z" fill="#F8DE44"/><path d="M194.51 94.11c-.45.4 1.92 6.11 1.92 6.11l5.76-6.29 12.98-.09-3.44 9.04 5.79-8.78 22.89-.31.63 6.63 2.42-6.58 18.04.15 3.33.4 4.23 3.1 1.66 4.36 4.05-4.58 3.69-2.25 5.44-1.12 7.19 1.35 4.32 5.3 4.72-6.7 23.11.07.29 8.71-10.4.56.08 1.56 8.28.08-.19 4.1-8.03.38.22 1.45 9.97.11.11 9.05L81.86 231.56 182.02 94.08l12.5.02-.01.01Z" fill="#B8E6DC"/><path d="m180.42 58.88 6.76 26.54h10.41l3.85-12.85 3.75 12.76h10.88l7.13-26.64h-11.26L209.5 69.2l-2.9-10.32h-9.95l-2.72 10.88-2.72-10.88h-10.79ZM236.57 58.69c-7.78 0-14.09 6.31-14.09 14.09s6.31 14.09 14.09 14.09 14.09-6.31 14.09-14.09-6.31-14.09-14.09-14.09Zm.93 15.03-.93 1.71-.93-1.71-1.71-.93 1.71-.93.93-1.71.93 1.71 1.71.93-1.71.93ZM251.72 85.31h11.76l1.25-9 3.19 9.07h7.94l3.07-8.57 1.5 8.63h11.69l-4.31-26.7H276.3l-4.44 11.5-4.31-11.57h-11.57l-4.26 26.64Z" fill="#FF65B6"/><path d="m182.21 93.88 9.19 26.55h13.69l10.04-26.55h-12.85l-3.75 12.29-4.22-12.38-12.1.09Z" fill="#F9D1D1"/><path d="M295.15 58.67h23.36v9.43h-10.32v1.59h8.16v4.36h-8.07v1.83h10.23v9.19H295.1s-.07-26.52.05-26.41v.01Z" fill="#FF65B6"/><path d="m182.21 93.88 9.19 26.55h13.69l10.04-26.55h-12.85l-3.75 12.29-4.22-12.38-12.1.09ZM217.52 93.79h23.36v9.43h-10.32v1.59h8.16v4.36h-8.07V111h10.23v9.19h-23.41s-.07-26.52.05-26.41v.01ZM299.86 93.79h23.36v9.43H312.9v1.59h8.16v4.36h-8.07V111h10.23v9.19h-23.41s-.07-26.52.05-26.41v.01ZM267.5 109.26s4.78-3.56 2.81-10.23c0 0-.97-2.67-3.83-4.3a7.507 7.507 0 0 0-3.7-.96h-19.01v26.64H257v-6.57l2.53 6.38h12.57l-4.6-10.98v.02Zm-8.4-5.77c-.05 1.69-2.53 1.27-2.53 1.27v-2.63c2.63-.11 2.53 1.36 2.53 1.36ZM285.42 101.76h10.23s.28-7.83-11.35-7.97c0 0-9.01-.38-11.54 6.89 0 0-1.41 6.05 4.83 8.58 0 0 2.88 1.39 5.69 1.58 0 0 1.34-.96 1.34-1.94 0 0 .34 1.79 1.83 2.3 0 0-1.59.98-1.83 2.25 0 0-.03-.87-1.36-1.82l-11.16-.05s-.33 7.96 8.68 10.49c0 0 3.1.58 6.82.16 3.38-.37 6.53-2.03 8.64-4.7.81-1.02 1.48-2.2 1.68-3.45.02-.11.03-.22.05-.33.17-.9.99-6.54-5-9.52 0 0-4.97-1.92-7.6-1.69 0 0-.56.42-.75.95 0 0-.5-1.19-1.55-1.32 0 0 1.04-.44 1.54-1.52 0 0 .16.7.81 1.09v.02Z" fill="#467040"/></g><defs><clipPath id="a"><path fill="#fff" d="M0 0h323.54v231.56H0z"/></clipPath></defs></svg>